name C:\Users\u0150099\Documents\master_thesis\3dpredictsim\Results\debug\Fal_s1_mtjc2_sc_cspx10_oy2_ATx70_MTc2_MTPm_k1_d01_MTJm_nl_MG_exp5_table_d01_PF_Natali2010_ls146_FDB2_lTs125_Fpsl10_ig21_wAk5e+04_wa2e+03_wpMnD1e+03.mot
datacolumns 130
datarows 4
range 0.00000000 0.03141033
endheader
time	pelvis_tilt	pelvis_list	pelvis_rotation	pelvis_tx	pelvis_ty	pelvis_tz	hip_flexion_l	hip_adduction_l	hip_rotation_l	hip_flexion_r	hip_adduction_r	hip_rotation_r	knee_angle_l	knee_angle_r	ankle_angle_l	ankle_angle_r	subtalar_angle_l	subtalar_angle_r	mtj_angle_l	mtj_angle_r	mtp_angle_l	mtp_angle_r	lumbar_extension	lumbar_bending	lumbar_rotation	arm_flex_l	arm_add_l	arm_rot_l	arm_flex_r	arm_add_r	arm_rot_r	elbow_flex_l	elbow_flex_r	pro_sup_l	pro_sup_r	glut_med1_l/activation	glut_med2_l/activation	glut_med3_l/activation	glut_min1_l/activation	glut_min2_l/activation	glut_min3_l/activation	semimem_l/activation	semiten_l/activation	bifemlh_l/activation	bifemsh_l/activation	sar_l/activation	add_long_l/activation	add_brev_l/activation	add_mag1_l/activation	add_mag2_l/activation	add_mag3_l/activation	tfl_l/activation	pect_l/activation	grac_l/activation	glut_max1_l/activation	glut_max2_l/activation	glut_max3_l/activation	iliacus_l/activation	psoas_l/activation	quad_fem_l/activation	gem_l/activation	peri_l/activation	rect_fem_l/activation	vas_med_l/activation	vas_int_l/activation	vas_lat_l/activation	med_gas_l/activation	lat_gas_l/activation	soleus_l/activation	tib_post_l/activation	flex_dig_l/activation	flex_hal_l/activation	tib_ant_l/activation	per_brev_l/activation	per_long_l/activation	per_tert_l/activation	ext_dig_l/activation	ext_hal_l/activation	FDB_l/activation	ercspn_l/activation	intobl_l/activation	extobl_l/activation	glut_med1_r/activation	glut_med2_r/activation	glut_med3_r/activation	glut_min1_r/activation	glut_min2_r/activation	glut_min3_r/activation	semimem_r/activation	semiten_r/activation	bifemlh_r/activation	bifemsh_r/activation	sar_r/activation	add_long_r/activation	add_brev_r/activation	add_mag1_r/activation	add_mag2_r/activation	add_mag3_r/activation	tfl_r/activation	pect_r/activation	grac_r/activation	glut_max1_r/activation	glut_max2_r/activation	glut_max3_r/activation	iliacus_r/activation	psoas_r/activation	quad_fem_r/activation	gem_r/activation	peri_r/activation	rect_fem_r/activation	vas_med_r/activation	vas_int_r/activation	vas_lat_r/activation	med_gas_r/activation	lat_gas_r/activation	soleus_r/activation	tib_post_r/activation	flex_dig_r/activation	flex_hal_r/activation	tib_ant_r/activation	per_brev_r/activation	per_long_r/activation	per_tert_r/activation	ext_dig_r/activation	ext_hal_r/activation	FDB_r/activation	ercspn_r/activation	intobl_r/activation	extobl_r/activation	
          0.00000000	         -2.92863204	         -1.30696787	          2.59479859	          0.00000000	          0.90856536	         -0.00318920	        -13.74725950	          1.81092601	          8.67976842	         30.26153366	          2.60905813	         -2.98219542	        -14.97169311	        -13.72888161	          9.22755895	         11.67159638	          8.25553136	          4.55252947	         -0.15872685	         -0.71599655	         13.50263742	         -1.86886267	         -4.24856497	          0.77532402	         -1.55537052	          3.26765199	        -13.94221127	         19.38740921	         -3.57625752	        -13.52069535	          6.69028751	         39.95421967	         26.32707765	         86.51662706	         86.51662706	          0.25345794	          0.05872538	          0.05000026	          0.47058755	          0.19061502	          0.08068372	          0.05000144	          0.05000017	          0.05000015	          0.05000092	          0.10532031	          0.05000007	          0.05000008	          0.05000020	          0.05000067	          0.05000039	          0.56968314	          0.05000044	          0.05000033	          0.05000352	          0.05000139	          0.05000058	          0.36707046	          0.75281835	          0.05000010	          0.05000049	          0.05000014	          0.43426354	          0.14940291	          0.16444634	          0.13207775	          0.38471500	          0.47369361	          0.30732486	          0.49086762	          0.37878478	          0.50924633	          0.05000002	          0.06269628	          0.19171968	          0.05000009	          0.05000004	          0.09828064	          0.73989827	          0.05000002	          0.05000000	          0.05000002	          0.05000170	          0.05000031	          0.05872516	          0.05000013	          0.05000019	          0.05000113	          0.37038273	          0.06897283	          0.27802617	          0.05000096	          0.05000100	          0.08357058	          0.16468390	          0.13937438	          0.18246681	          0.17631388	          0.05000440	          0.05000984	          0.11119210	          0.05873267	          0.08617517	          0.14621144	          0.05000010	          0.05000013	          0.15088886	          0.05000255	          0.05000039	          0.05000016	          0.05570061	          0.05415060	          0.05001881	          0.06872313	          0.05084570	          0.05091861	          0.05374545	          0.05047984	          0.05000085	          0.27337876	          0.05000033	          0.05959691	          0.18083118	          0.54262523	          0.30550043	          0.29121327	          0.06276785	          0.07458664	          0.09514519	
          0.01047011	         -2.93014842	         -1.39228850	          2.87949116	          0.01631171	          0.90760851	         -0.00290907	        -14.27262418	          1.43374169	          8.68997384	         29.96721853	          2.93194140	         -2.99298050	        -15.62858509	        -13.96518076	          8.33166133	         11.14727297	          9.02383126	          4.62241669	         -1.09461031	         -0.33213211	         15.89312119	         -2.53067061	         -4.08365252	          0.93695553	         -1.63495299	          2.83433385	        -13.91826513	         19.29927259	         -4.34221502	        -13.47281149	          5.74340125	         41.68273891	         25.88687079	         86.51662706	         86.51662706	          0.21580046	          0.05000032	          0.05000003	          0.40067003	          0.16229443	          0.06869627	          0.05000316	          0.05000030	          0.05000016	          0.05000051	          0.08967250	          0.08083272	          0.05000287	          0.05000071	          0.05000201	          0.05000188	          0.51436624	          0.05002858	          0.05000035	          0.05000075	          0.05000049	          0.05000051	          0.31253293	          0.67700402	          0.05000004	          0.05000020	          0.05000019	          0.40194293	          0.15972391	          0.17292512	          0.15012617	          0.35077534	          0.43266433	          0.27169643	          0.44363069	          0.34061913	          0.43359029	          0.05000000	          0.05871362	          0.16323491	          0.05000007	          0.05000004	          0.08367859	          0.62996778	          0.05000001	          0.05000073	          0.06288758	          0.05872508	          0.05872510	          0.05000020	          0.05872515	          0.05872514	          0.05872491	          0.32881708	          0.05872525	          0.24070971	          0.05872510	          0.05000024	          0.17020403	          0.18039490	          0.11866716	          0.15753774	          0.16731431	          0.05000014	          0.05000513	          0.09467236	          0.05000665	          0.07337180	          0.15711975	          0.05841323	          0.05000604	          0.46318795	          0.24975050	          0.10941720	          0.05000004	          0.05000007	          0.05000007	          0.05000005	          0.05931875	          0.05000015	          0.05000001	          0.05000079	          0.05872515	          0.05872514	          0.27865573	          0.05048304	          0.09455698	          0.20634656	          0.58257944	          0.26011092	          0.24840637	          0.05344212	          0.06350492	          0.08100899	
          0.02094022	         -2.92988391	         -1.48909764	          3.14858363	          0.03288304	          0.90670572	         -0.00260874	        -14.70974259	          1.03850018	          8.66392658	         29.67992434	          3.21324511	         -2.98601461	        -16.40463187	        -14.88212868	          7.26913908	         10.23233610	          9.81921649	          4.69527117	         -2.13073425	          0.12998392	         18.48905235	         -3.11142388	         -3.90429515	          1.11029502	         -1.70778012	          2.33145221	        -13.87895947	         19.12865106	         -5.10208631	        -13.45022880	          5.07422217	         43.41213013	         25.39846281	         86.51662706	         86.51662706	          0.18373790	          0.05872508	          0.05872509	          0.34114047	          0.13818156	          0.05872498	          0.05000295	          0.05000097	          0.05003005	          0.05000010	          0.07634962	          0.20810505	          0.07937282	          0.05872557	          0.05872501	          0.05872565	          0.43794469	          0.05000102	          0.05872486	          0.05872499	          0.05872506	          0.05872510	          0.26609832	          0.61099934	          0.05872513	          0.05872519	          0.05872471	          0.34222427	          0.18399093	          0.19624687	          0.16530653	          0.30826985	          0.38086011	          0.23132909	          0.37771824	          0.29001174	          0.36916966	          0.05000001	          0.05000002	          0.13898227	          0.05000004	          0.05000002	          0.07124604	          0.53637021	          0.05902831	          0.06897270	          0.06897265	          0.05000001	          0.05000005	          0.11768645	          0.05000007	          0.05000008	          0.05000008	          0.27996305	          0.05000016	          0.20494624	          0.05000005	          0.08100856	          0.14491668	          0.32156440	          0.29779263	          0.13413311	          0.18625604	          0.05872496	          0.08101371	          0.08060653	          0.05000050	          0.10103784	          0.17476011	          0.06937400	          0.06897444	          0.68385736	          0.21264386	          0.09316063	          0.06897283	          0.13474215	          0.13382111	          0.10738606	          0.06897273	          0.06897293	          0.06897271	          0.05000014	          0.05000017	          0.05000017	          0.35404120	          0.08660750	          0.08050818	          0.31042228	          0.61302205	          0.22286816	          0.21149935	          0.05000000	          0.05406967	          0.06897308	
          0.03141033	         -2.92874309	         -1.61741951	          3.40304166	          0.04967301	          0.90590742	         -0.00232193	        -15.05684499	          0.61471560	          8.60553812	         29.30224638	          3.42034315	         -2.89215113	        -17.28779717	        -15.97100514	          6.02456147	          9.26045769	         10.58818667	          4.78425448	         -3.26111336	          0.47928792	         21.22526483	         -3.63071685	         -3.71079014	          1.31707648	         -1.77401797	          1.76918614	        -13.82428998	         18.91893949	         -5.84054194	        -13.45738916	          4.67466483	         45.13106310	         24.84087264	         86.51662706	         86.51662706	          0.20130255	          0.05000006	          0.05000002	          0.29045745	          0.11765129	          0.05000014	          0.05000142	          0.05000014	          0.05000007	          0.05872522	          0.06500676	          0.20256802	          0.08934746	          0.05000059	          0.05000074	          0.05000069	          0.51288478	          0.06900234	          0.05000038	          0.05000056	          0.05000029	          0.05000020	          0.22656277	          0.68887791	          0.05000005	          0.05000017	          0.05000002	          0.29137827	          0.15665449	          0.16708950	          0.14074612	          0.26246862	          0.32427384	          0.19695933	          0.32159871	          0.24692324	          0.31432026	          0.12012051	          0.11174350	          0.11833298	          0.05000018	          0.05000004	          0.06066065	          0.45667891	          0.08689029	          0.05872507	          0.05872505	          0.32633008	          0.32011709	          0.36590611	          0.38828547	          0.26128257	          0.22949714	          0.23836752	          0.15292271	          0.18436863	          0.09514452	          0.06897281	          0.12338574	          0.27378803	          0.25354814	          0.11420447	          0.24707060	          0.05000033	          0.06897773	          0.19178233	          0.17008203	          0.17594277	          0.22567062	          0.05906682	          0.05872659	          0.58225317	          0.18105037	          0.12851185	          0.05872519	          0.11472283	          0.11393863	          0.09143116	          0.05872510	          0.05872527	          0.05872508	          0.08078671	          0.07901222	          0.06898531	          0.41550431	          0.07373982	          0.10826534	          0.36130798	          0.72148332	          0.54232707	          0.53563175	          0.07328008	          0.09585515	          0.05872540	
